<mxfile host="app.diagrams.net" modified="2023-09-05T09:02:00.179Z" agent="Mozilla/5.0 (Windows NT 10.0; Win64; x64) AppleWebKit/537.36 (KHTML, like Gecko) Chrome/116.0.0.0 Safari/537.36" etag="AE3axs90m6nzndF9qHnZ" version="21.7.2" type="device">
  <diagram name="Page-1" id="2YBvvXClWsGukQMizWep">
    <mxGraphModel dx="808" dy="411" grid="1" gridSize="10" guides="1" tooltips="1" connect="1" arrows="1" fold="1" page="1" pageScale="1" pageWidth="850" pageHeight="1100" math="0" shadow="0">
      <root>
        <mxCell id="0" />
        <mxCell id="1" parent="0" />
        <mxCell id="aM9ryv3xv72pqoxQDRHE-1" value="DG-CLOUD&amp;nbsp;" style="shape=umlLifeline;perimeter=lifelinePerimeter;whiteSpace=wrap;html=1;container=0;dropTarget=0;collapsible=0;recursiveResize=0;outlineConnect=0;portConstraint=eastwest;newEdgeStyle={&quot;edgeStyle&quot;:&quot;elbowEdgeStyle&quot;,&quot;elbow&quot;:&quot;vertical&quot;,&quot;curved&quot;:0,&quot;rounded&quot;:0};" parent="1" vertex="1">
          <mxGeometry x="240" y="180" width="100" height="820" as="geometry" />
        </mxCell>
        <mxCell id="aM9ryv3xv72pqoxQDRHE-5" value="OPENIIMS&amp;nbsp;&lt;br&gt;(API Server)" style="shape=umlLifeline;perimeter=lifelinePerimeter;whiteSpace=wrap;html=1;container=0;dropTarget=0;collapsible=0;recursiveResize=0;outlineConnect=0;portConstraint=eastwest;newEdgeStyle={&quot;edgeStyle&quot;:&quot;elbowEdgeStyle&quot;,&quot;elbow&quot;:&quot;vertical&quot;,&quot;curved&quot;:0,&quot;rounded&quot;:0};size=50;" parent="1" vertex="1">
          <mxGeometry x="640" y="180" width="100" height="810" as="geometry" />
        </mxCell>
        <mxCell id="f1YjoI7PP6g0XKx3sIXT-1" value="Actor" style="shape=umlActor;verticalLabelPosition=bottom;verticalAlign=top;html=1;outlineConnect=0;" parent="1" vertex="1">
          <mxGeometry x="150" y="170" width="30" height="60" as="geometry" />
        </mxCell>
        <mxCell id="f1YjoI7PP6g0XKx3sIXT-2" value="" style="endArrow=none;dashed=1;html=1;rounded=0;" parent="1" target="f1YjoI7PP6g0XKx3sIXT-1" edge="1">
          <mxGeometry width="50" height="50" relative="1" as="geometry">
            <mxPoint x="165" y="1000" as="sourcePoint" />
            <mxPoint x="200" y="300" as="targetPoint" />
          </mxGeometry>
        </mxCell>
        <mxCell id="f1YjoI7PP6g0XKx3sIXT-8" value="" style="endArrow=classic;html=1;rounded=0;" parent="1" target="aM9ryv3xv72pqoxQDRHE-1" edge="1">
          <mxGeometry relative="1" as="geometry">
            <mxPoint x="170" y="270" as="sourcePoint" />
            <mxPoint x="270" y="270" as="targetPoint" />
          </mxGeometry>
        </mxCell>
        <mxCell id="f1YjoI7PP6g0XKx3sIXT-9" value="Policy Number" style="edgeLabel;resizable=0;html=1;align=center;verticalAlign=middle;" parent="f1YjoI7PP6g0XKx3sIXT-8" connectable="0" vertex="1">
          <mxGeometry relative="1" as="geometry" />
        </mxCell>
        <mxCell id="2SEBVP03M2VH9MPjem_z-2" value="" style="endArrow=classic;html=1;rounded=0;" edge="1" parent="1" target="aM9ryv3xv72pqoxQDRHE-5">
          <mxGeometry relative="1" as="geometry">
            <mxPoint x="290" y="300" as="sourcePoint" />
            <mxPoint x="410" y="300" as="targetPoint" />
          </mxGeometry>
        </mxCell>
        <mxCell id="2SEBVP03M2VH9MPjem_z-3" value="Eligibility Request&amp;nbsp;" style="edgeLabel;resizable=0;html=1;align=center;verticalAlign=middle;" connectable="0" vertex="1" parent="2SEBVP03M2VH9MPjem_z-2">
          <mxGeometry relative="1" as="geometry" />
        </mxCell>
        <mxCell id="2SEBVP03M2VH9MPjem_z-4" value="EndPoint : /EligibilityRequest/&lt;br&gt;Method : POST" style="text;html=1;align=center;verticalAlign=middle;resizable=0;points=[];autosize=1;strokeColor=none;fillColor=none;" vertex="1" parent="1">
          <mxGeometry x="390" y="320" width="180" height="40" as="geometry" />
        </mxCell>
        <mxCell id="2SEBVP03M2VH9MPjem_z-5" value="&lt;font style=&quot;font-size: 15px;&quot;&gt;BaseUrl :&amp;nbsp;&lt;/font&gt;&lt;br&gt;&lt;font style=&quot;font-size: 17px;&quot;&gt;https://imis.hib.gov.np/api/api_fhir/&lt;/font&gt;" style="text;html=1;align=center;verticalAlign=middle;resizable=0;points=[];autosize=1;strokeColor=none;fillColor=none;" vertex="1" parent="1">
          <mxGeometry x="350" y="60" width="280" height="50" as="geometry" />
        </mxCell>
        <mxCell id="2SEBVP03M2VH9MPjem_z-10" value="" style="endArrow=classic;html=1;rounded=0;" edge="1" parent="1">
          <mxGeometry relative="1" as="geometry">
            <mxPoint x="689.4999999999995" y="404" as="sourcePoint" />
            <mxPoint x="288.68181818181847" y="404" as="targetPoint" />
          </mxGeometry>
        </mxCell>
        <mxCell id="2SEBVP03M2VH9MPjem_z-11" value="Response:&lt;br&gt;Available Money&amp;nbsp;&lt;br&gt;Used Money" style="edgeLabel;resizable=0;html=1;align=center;verticalAlign=middle;" connectable="0" vertex="1" parent="2SEBVP03M2VH9MPjem_z-10">
          <mxGeometry relative="1" as="geometry" />
        </mxCell>
        <mxCell id="2SEBVP03M2VH9MPjem_z-17" value="" style="endArrow=classic;html=1;rounded=0;" edge="1" parent="1" target="aM9ryv3xv72pqoxQDRHE-5">
          <mxGeometry relative="1" as="geometry">
            <mxPoint x="290" y="478" as="sourcePoint" />
            <mxPoint x="489.5000000000002" y="478" as="targetPoint" />
          </mxGeometry>
        </mxCell>
        <mxCell id="2SEBVP03M2VH9MPjem_z-18" value="Get Patient Info &lt;br&gt;using Policy Number" style="edgeLabel;resizable=0;html=1;align=center;verticalAlign=middle;" connectable="0" vertex="1" parent="2SEBVP03M2VH9MPjem_z-17">
          <mxGeometry relative="1" as="geometry">
            <mxPoint x="-4" as="offset" />
          </mxGeometry>
        </mxCell>
        <mxCell id="2SEBVP03M2VH9MPjem_z-19" value="EndPoint : /Patient?identifier=&amp;lt;policyNumber&amp;gt;&lt;br&gt;Method : GET" style="text;html=1;align=center;verticalAlign=middle;resizable=0;points=[];autosize=1;strokeColor=none;fillColor=none;" vertex="1" parent="1">
          <mxGeometry x="370" y="500" width="270" height="40" as="geometry" />
        </mxCell>
        <mxCell id="2SEBVP03M2VH9MPjem_z-23" value="" style="endArrow=classic;html=1;rounded=0;" edge="1" parent="1">
          <mxGeometry relative="1" as="geometry">
            <mxPoint x="690" y="570" as="sourcePoint" />
            <mxPoint x="290" y="570" as="targetPoint" />
          </mxGeometry>
        </mxCell>
        <mxCell id="2SEBVP03M2VH9MPjem_z-24" value="Response:&lt;br&gt;patientID in API server&amp;nbsp;" style="edgeLabel;resizable=0;html=1;align=center;verticalAlign=middle;" connectable="0" vertex="1" parent="2SEBVP03M2VH9MPjem_z-23">
          <mxGeometry relative="1" as="geometry" />
        </mxCell>
        <mxCell id="2SEBVP03M2VH9MPjem_z-25" value="" style="endArrow=classic;html=1;rounded=0;" edge="1" parent="1">
          <mxGeometry relative="1" as="geometry">
            <mxPoint x="290" y="640" as="sourcePoint" />
            <mxPoint x="690" y="640" as="targetPoint" />
          </mxGeometry>
        </mxCell>
        <mxCell id="2SEBVP03M2VH9MPjem_z-26" value="Submit Claim Request" style="edgeLabel;resizable=0;html=1;align=center;verticalAlign=middle;" connectable="0" vertex="1" parent="2SEBVP03M2VH9MPjem_z-25">
          <mxGeometry relative="1" as="geometry">
            <mxPoint x="-4" as="offset" />
          </mxGeometry>
        </mxCell>
        <mxCell id="2SEBVP03M2VH9MPjem_z-27" value="EndPoint : /Claim/&lt;br&gt;Method : POST" style="text;html=1;align=center;verticalAlign=middle;resizable=0;points=[];autosize=1;strokeColor=none;fillColor=none;" vertex="1" parent="1">
          <mxGeometry x="430" y="660" width="120" height="40" as="geometry" />
        </mxCell>
        <mxCell id="2SEBVP03M2VH9MPjem_z-28" value="" style="endArrow=classic;html=1;rounded=0;" edge="1" parent="1">
          <mxGeometry relative="1" as="geometry">
            <mxPoint x="690" y="740" as="sourcePoint" />
            <mxPoint x="290" y="740" as="targetPoint" />
          </mxGeometry>
        </mxCell>
        <mxCell id="2SEBVP03M2VH9MPjem_z-29" value="Response:&lt;br&gt;Claim ID&amp;nbsp;" style="edgeLabel;resizable=0;html=1;align=center;verticalAlign=middle;" connectable="0" vertex="1" parent="2SEBVP03M2VH9MPjem_z-28">
          <mxGeometry relative="1" as="geometry" />
        </mxCell>
        <mxCell id="2SEBVP03M2VH9MPjem_z-30" value="" style="endArrow=classic;html=1;rounded=0;" edge="1" parent="1">
          <mxGeometry relative="1" as="geometry">
            <mxPoint x="290" y="820" as="sourcePoint" />
            <mxPoint x="690" y="820" as="targetPoint" />
          </mxGeometry>
        </mxCell>
        <mxCell id="2SEBVP03M2VH9MPjem_z-31" value="Valid Claim" style="edgeLabel;resizable=0;html=1;align=center;verticalAlign=middle;" connectable="0" vertex="1" parent="2SEBVP03M2VH9MPjem_z-30">
          <mxGeometry relative="1" as="geometry">
            <mxPoint x="-4" as="offset" />
          </mxGeometry>
        </mxCell>
        <mxCell id="2SEBVP03M2VH9MPjem_z-33" value="EndPoint : /Claim/&amp;lt;ClaimId&amp;gt;&lt;br&gt;Method : GET" style="text;html=1;align=center;verticalAlign=middle;resizable=0;points=[];autosize=1;strokeColor=none;fillColor=none;" vertex="1" parent="1">
          <mxGeometry x="415" y="830" width="170" height="40" as="geometry" />
        </mxCell>
        <mxCell id="2SEBVP03M2VH9MPjem_z-35" value="" style="endArrow=classic;html=1;rounded=0;" edge="1" parent="1">
          <mxGeometry relative="1" as="geometry">
            <mxPoint x="690" y="910" as="sourcePoint" />
            <mxPoint x="290" y="910" as="targetPoint" />
          </mxGeometry>
        </mxCell>
        <mxCell id="2SEBVP03M2VH9MPjem_z-36" value="Response:&lt;br&gt;Claim Amount&amp;nbsp;" style="edgeLabel;resizable=0;html=1;align=center;verticalAlign=middle;" connectable="0" vertex="1" parent="2SEBVP03M2VH9MPjem_z-35">
          <mxGeometry relative="1" as="geometry" />
        </mxCell>
        <mxCell id="2SEBVP03M2VH9MPjem_z-37" value="" style="endArrow=classic;html=1;rounded=0;" edge="1" parent="1" source="aM9ryv3xv72pqoxQDRHE-1">
          <mxGeometry relative="1" as="geometry">
            <mxPoint x="400" y="1010" as="sourcePoint" />
            <mxPoint x="160" y="980" as="targetPoint" />
          </mxGeometry>
        </mxCell>
        <mxCell id="2SEBVP03M2VH9MPjem_z-38" value="Bill" style="edgeLabel;resizable=0;html=1;align=center;verticalAlign=middle;" connectable="0" vertex="1" parent="2SEBVP03M2VH9MPjem_z-37">
          <mxGeometry relative="1" as="geometry" />
        </mxCell>
      </root>
    </mxGraphModel>
  </diagram>
</mxfile>
